<svg width="340" height="72" viewBox="0 0 340 72" xmlns="http://www.w3.org/2000/svg" role="img" aria-label="SndBnch">
  <g>
    <rect x="0" y="34" width="88" height="2" rx="1" fill="#5a4f5f"/>
    <rect x="6"  y="22" width="5" height="12" rx="2.5" fill="#35c5d8"/>
    <rect x="16" y="15" width="5" height="19" rx="2.5" fill="#35c5d8"/>
    <rect x="26" y="25" width="5" height="9"  rx="2.5" fill="#e3b24a"/>
    <rect x="36" y="18" width="5" height="16" rx="2.5" fill="#d6436b"/>
    <rect x="46" y="23" width="5" height="11" rx="2.5" fill="#d6436b"/>
    <rect x="56" y="16" width="5" height="18" rx="2.5" fill="#35c5d8"/>
    <rect x="66" y="26" width="5" height="8"  rx="2.5" fill="#e3b24a"/>
    <rect x="76" y="20" width="5" height="14" rx="2.5" fill="#d6436b"/>
    <rect x="6"  y="36" width="5" height="9"  rx="2.5" fill="#f2864b" opacity="0.85"/>
    <rect x="16" y="36" width="5" height="14" rx="2.5" fill="#f2864b" opacity="0.85"/>
    <rect x="26" y="36" width="5" height="7"  rx="2.5" fill="#f2864b" opacity="0.85"/>
    <rect x="36" y="36" width="5" height="12" rx="2.5" fill="#f2864b" opacity="0.85"/>
    <rect x="46" y="36" width="5" height="8"  rx="2.5" fill="#f2864b" opacity="0.85"/>
    <rect x="56" y="36" width="5" height="13" rx="2.5" fill="#f2864b" opacity="0.85"/>
    <rect x="66" y="36" width="5" height="6"  rx="2.5" fill="#f2864b" opacity="0.85"/>
    <rect x="76" y="36" width="5" height="10" rx="2.5" fill="#f2864b" opacity="0.85"/>
  </g>
  <text x="104" y="47" font-family="ui-rounded, 'Segoe UI', system-ui, Arial, sans-serif"
        font-weight="800" font-size="40" letter-spacing="-1.5" fill="#17131f">SndBnch</text>
</svg>
